<svg width="21" height="22" viewBox="0 0 21 22" fill="none" xmlns="http://www.w3.org/2000/svg">
<path d="M14.6137 10V5C14.6137 3.93913 14.1922 2.92172 13.4421 2.17157C12.6919 1.42143 11.6745 1 10.6137 1C9.55279 1 8.53538 1.42143 7.78523 2.17157C7.03509 2.92172 6.61366 3.93913 6.61366 5V10M2.59066 8.84C2.63088 8.33881 2.85841 7.87115 3.22793 7.53017C3.59746 7.18918 4.08185 6.9999 4.58466 7H16.6427C17.1455 6.9999 17.6299 7.18918 17.9994 7.53017C18.3689 7.87115 18.5964 8.33881 18.6367 8.84L19.4397 18.84C19.4617 19.1152 19.4266 19.392 19.3365 19.6529C19.2464 19.9139 19.1032 20.1533 18.916 20.3562C18.7287 20.5592 18.5015 20.7211 18.2487 20.8319C17.9958 20.9427 17.7227 20.9999 17.4467 21H3.78066C3.50458 20.9999 3.23151 20.9427 2.97864 20.8319C2.72577 20.7211 2.49857 20.5592 2.31136 20.3562C2.12414 20.1533 1.98096 19.9139 1.89083 19.6529C1.8007 19.392 1.76557 19.1152 1.78766 18.84L2.59066 8.84Z" stroke="#252525" stroke-width="2" stroke-linecap="round" stroke-linejoin="round"/>
</svg>
